# xmcd
#
# Track frame offsets:
#	150
#	22209
#	34979
#	51857
#	66055
#	81172
#	92206
#	105673
#	117579
#	133511
#	146610
#	163184
#	178896
#	192093
#
# Disc length: 2772 seconds
#
# Revision: 1
# Processed by: cddbd v1.4PL0 Copyright (c) Steve Scherf et al.
# Submitted via: audiograbber 1.81.03
#
DISCID=ce0ad20e
DTITLE=CleMaRic feat. Frank Johnny Schütten - Shake the Lake
DYEAR=1900
DGENRE=
TTITLE0=Let's buy a Piano
TTITLE1=Sheik of Araby
TTITLE2=Blues for my Baby
TTITLE3=Grandmother's Bluea
TTITLE4=St. Louis Blues
TTITLE5=Servus Hans
TTITLE6=Slow Motion Blues
TTITLE7=Growin' up Noogie
TTITLE8=Yancey Special
TTITLE9=Lucy
TTITLE10=easy Rider
TTITLE11=Swingin' the Blues
TTITLE12=Roll' em Pete
TTITLE13=Jet Lag
EXTD=
EXTT0=
EXTT1=
EXTT2=
EXTT3=
EXTT4=
EXTT5=
EXTT6=
EXTT7=
EXTT8=
EXTT9=
EXTT10=
EXTT11=
EXTT12=
EXTT13=
PLAYORDER=
